<?xml version="1.0" encoding="utf-8"?>
<!-- Generator: Adobe Illustrator 22.1.0, SVG Export Plug-In . SVG Version: 6.00 Build 0)  -->
<svg version="1.1" id="Livello_1" 
	xmlns="http://www.w3.org/2000/svg" 
	xmlns:xlink="http://www.w3.org/1999/xlink" x="0px" y="0px" viewBox="0 0 24 24" enable-background="new 0 0 24 24" xml:space="preserve">
	<g>
		<path d="M13.01,3.33c-0.66-0.19-1.36-0.19-2.01,0c-0.41,0.12-0.77,0.32-1.15,0.59C9.47,4.17,9.05,4.52,8.52,4.96
		L5.89,7.13c-0.99,0.82-1.6,1.31-2.03,1.93C3.46,9.61,3.17,10.22,3,10.87c-0.2,0.73-0.2,1.51-0.2,2.8l0,2.94c0,0.82,0,1.37,0.13,1.85
		c0.34,1.28,1.34,2.27,2.62,2.62c0.47,0.13,1.02,0.13,1.85,0.13l0.19,0c0.38,0,0.71,0,0.99-0.08c0.76-0.2,1.35-0.8,1.56-1.56
		c0.08-0.28,0.08-0.6,0.07-0.99V16c0-0.99,0.81-1.8,1.8-1.8s1.8,0.81,1.8,1.8l0,2.58c0,0.38,0,0.71,0.08,0.99
		c0.2,0.76,0.8,1.35,1.56,1.56c0.28,0.08,0.6,0.08,0.99,0.08l0.19,0c0.82,0,1.37,0,1.85-0.13c1.28-0.34,2.27-1.34,2.62-2.62
		c0.13-0.47,0.13-1.02,0.13-1.85v-2.94c0-1.28,0-2.07-0.2-2.8c-0.18-0.65-0.46-1.26-0.85-1.81c-0.44-0.62-1.04-1.12-2.03-1.93
		l-2.64-2.17c-0.53-0.43-0.95-0.78-1.32-1.04C13.78,3.64,13.42,3.44,13.01,3.33z M11.37,4.67c0.41-0.12,0.84-0.12,1.25,0
		c0.2,0.06,0.41,0.16,0.72,0.38c0.32,0.23,0.71,0.54,1.26,1l2.53,2.09c1.1,0.91,1.55,1.28,1.87,1.73c0.29,0.41,0.51,0.88,0.64,1.36
		c0.14,0.53,0.15,1.11,0.15,2.54v2.72c0,0.98-0.01,1.33-0.08,1.6c-0.21,0.79-0.83,1.41-1.63,1.63c-0.27,0.07-0.62,0.08-1.6,0.08
		c-0.51,0-0.63-0.01-0.71-0.03c-0.28-0.07-0.49-0.29-0.57-0.57c-0.02-0.08-0.03-0.2-0.03-0.71V16c0-1.77-1.43-3.2-3.2-3.2
		S8.8,14.23,8.8,16v2.5c0,0.51-0.01,0.63-0.03,0.71c-0.07,0.28-0.29,0.49-0.57,0.57c-0.08,0.02-0.2,0.03-0.71,0.03
		c-0.98,0-1.33-0.01-1.6-0.08c-0.79-0.21-1.41-0.83-1.63-1.63c-0.07-0.27-0.08-0.62-0.08-1.6v-2.72c0-1.43,0.01-2.01,0.15-2.54
		c0.13-0.49,0.35-0.95,0.64-1.36c0.32-0.45,0.77-0.82,1.87-1.73l2.53-2.09c0.55-0.45,0.94-0.77,1.26-1
		C10.96,4.84,11.18,4.73,11.37,4.67z"/>
	</g>
</svg>
