<svg xmlns="http://www.w3.org/2000/svg" width="54" height="54" viewBox="0 0 54 54">
  <g id="Group_22" data-name="Group 22" transform="translate(272 -925)">
    <rect id="Rectangle_1" data-name="Rectangle 1" width="54" height="54" rx="27" transform="translate(-272 925)" fill="#fff"/>
    <path id="Icon_awesome-pause" data-name="Icon awesome-pause" d="M4.749,16.955H1.583A1.583,1.583,0,0,1,0,15.372V3.763A1.583,1.583,0,0,1,1.583,2.18H4.749A1.583,1.583,0,0,1,6.332,3.763V15.372A1.583,1.583,0,0,1,4.749,16.955Zm10.026-1.583V3.763A1.583,1.583,0,0,0,13.192,2.18H10.026A1.583,1.583,0,0,0,8.443,3.763V15.372a1.583,1.583,0,0,0,1.583,1.583h3.166A1.583,1.583,0,0,0,14.775,15.372Z" transform="translate(-252 942.82)" fill="#b87bf2"/>
  </g>
</svg>
