<svg xmlns="http://www.w3.org/2000/svg" width="188.998" height="188.998" viewBox="0 0 188.998 188.998">
  <path id="Icon_material-person-outline" data-name="Icon material-person-outline" d="M100.5,28.444A24.806,24.806,0,1,1,75.693,53.25,24.8,24.8,0,0,1,100.5,28.444m0,106.312c35.083,0,72.056,17.246,72.056,24.806v12.994H28.444V159.561c0-7.56,36.973-24.806,72.056-24.806M100.5,6a47.25,47.25,0,1,0,47.25,47.25A47.237,47.237,0,0,0,100.5,6Zm0,106.312C68.96,112.312,6,128.14,6,159.561V195H195V159.561C195,128.14,132.038,112.312,100.5,112.312Z" transform="translate(-6 -6)" fill="#f2f2f2"/>
</svg>
