<svg xmlns="http://www.w3.org/2000/svg" width="20.495" height="23.423" viewBox="0 0 20.495 23.423" fill="#d8c6e9">
  <path id="Icon_awesome-user-astronaut" data-name="Icon awesome-user-astronaut" d="M2.928,10.248h.618a7.31,7.31,0,0,0,13.4,0h.618a.734.734,0,0,0,.732-.732V5.124a.734.734,0,0,0-.732-.732H16.95a7.31,7.31,0,0,0-13.4,0H2.928a.734.734,0,0,0-.732.732V9.516A.734.734,0,0,0,2.928,10.248Zm1.83-4.026a2.038,2.038,0,0,1,2.2-1.83h6.588a2.038,2.038,0,0,1,2.2,1.83v1.1a4.393,4.393,0,0,1-4.392,4.392H9.15A4.393,4.393,0,0,1,4.758,7.32ZM8.052,9.516,8.6,7.869l1.647-.549L8.6,6.771,8.052,5.124,7.5,6.771,5.856,7.32,7.5,7.869ZM14.987,14.7a8.723,8.723,0,0,1-9.479,0A6.131,6.131,0,0,0,0,20.788v.439a2.2,2.2,0,0,0,2.2,2.2h3.66V20.5A1.462,1.462,0,0,1,7.32,19.031h5.856A1.462,1.462,0,0,1,14.64,20.5v2.928H18.3a2.2,2.2,0,0,0,2.2-2.2v-.439A6.131,6.131,0,0,0,14.987,14.7ZM12.444,20.5a.732.732,0,1,0,.732.732A.734.734,0,0,0,12.444,20.5Zm-4.392,0a.734.734,0,0,0-.732.732v2.2H8.784v-2.2A.734.734,0,0,0,8.052,20.5Z" />
</svg>
